<svg width="32" height="32" viewBox="0 0 32 32" fill="none" xmlns="http://www.w3.org/2000/svg">
<path fill-rule="evenodd" clip-rule="evenodd" d="M0 16C0 7.163 7.163 0 16 0C24.837 0 32 7.163 32 16C32 24.837 24.837 32 16 32C7.163 32 0 24.837 0 16ZM12.6 7.7C11.7 7.7 11.1 7.9 10.6 8.1C10.1 8.3 9.6 8.6 9.1 9.1C8.6 9.6 8.4 10 8.1 10.6C7.9 11.1 7.8 11.7 7.7 12.6V19.4C7.7 20.3 7.9 20.9 8.1 21.4C8.3 21.9 8.6 22.4 9.1 22.9C9.6 23.4 10 23.6 10.6 23.9C11.1 24.1 11.7 24.2 12.6 24.3H19.4C20.3 24.3 20.9 24.1 21.4 23.9C21.9 23.7 22.4 23.4 22.9 22.9C23.4 22.4 23.6 22 23.9 21.4C24.1 20.9 24.2 20.3 24.3 19.4V12.6C24.3 11.7 24.1 11.1 23.9 10.6C23.7 10.1 23.4 9.6 22.9 9.1C22.4 8.6 22 8.4 21.4 8.1C20.9 7.9 20.3 7.8 19.4 7.7H12.6ZM16 11.7C18.4 11.7 20.3 13.6 20.3 16C20.3 18.4 18.4 20.3 16 20.3C13.6 20.3 11.7 18.4 11.7 16C11.7 13.6 13.6 11.7 16 11.7ZM16 18.517C17.349 18.517 18.517 17.349 18.517 16C18.517 14.562 17.349 13.483 16 13.483C14.562 13.483 13.483 14.651 13.483 16C13.483 17.438 14.651 18.517 16 18.517ZM21.4 11.6C21.4 12.152 20.952 12.6 20.4 12.6C19.848 12.6 19.4 12.152 19.4 11.6C19.4 11.048 19.848 10.6 20.4 10.6C20.952 10.6 21.4 11.048 21.4 11.6Z" fill="white"/>
</svg>
