<svg width="26" height="33" viewBox="0 0 26 33" fill="none" xmlns="http://www.w3.org/2000/svg">
<path fill-rule="evenodd" clip-rule="evenodd" d="M15.1162 0C16.4048 0 17.4733 0 18.3683 0.0467398C18.0052 0.480748 17.7867 1.03983 17.7867 1.64996V4.09996H16.0403C14.6595 4.09996 13.5403 5.21924 13.5403 6.59996C13.5403 7.98067 14.6595 9.09996 16.0403 9.09996H17.7867V11.55C17.7867 12.9307 18.9059 14.05 20.2867 14.05C21.6674 14.05 22.7867 12.9307 22.7867 11.55V9.09996H23.1162V25C23.1162 28.7712 23.1162 30.6569 21.9446 31.8284C20.7731 33 18.8874 33 15.1162 33H8.46875C4.69751 33 2.8119 33 1.64032 31.8284C0.46875 30.6569 0.46875 28.7712 0.46875 25V8C0.46875 4.22876 0.46875 2.34315 1.64032 1.17157C2.8119 0 4.69751 0 8.46875 0H15.1162ZM22.7867 2.68604C22.9008 3.09522 22.9754 3.56196 23.0242 4.09996H22.7867V2.68604ZM6.12942 15.5C5.57713 15.5 5.12942 15.9477 5.12942 16.5C5.12942 17.0523 5.57713 17.5 6.12942 17.5H11.7913C12.3436 17.5 12.7913 17.0523 12.7913 16.5C12.7913 15.9477 12.3436 15.5 11.7913 15.5H6.12942ZM6.12942 20.45C5.57713 20.45 5.12942 20.8977 5.12942 21.45C5.12942 22.0023 5.57713 22.45 6.12942 22.45H14.6222C15.1745 22.45 15.6222 22.0023 15.6222 21.45C15.6222 20.8977 15.1745 20.45 14.6222 20.45H6.12942ZM6.12942 25.4C5.57713 25.4 5.12942 25.8477 5.12942 26.4C5.12942 26.9523 5.57713 27.4 6.12942 27.4H11.7913C12.3436 27.4 12.7913 26.9523 12.7913 26.4C12.7913 25.8477 12.3436 25.4 11.7913 25.4H6.12942Z" fill="#222222"/>
<path d="M20.2852 1.64996L20.2852 11.55" stroke="#222222" stroke-width="2" stroke-linecap="round"/>
<path d="M24.5312 6.60004L16.0385 6.60004" stroke="#222222" stroke-width="2" stroke-linecap="round"/>
</svg>
