<svg width="24" height="25" viewBox="0 0 24 25" fill="none" xmlns="http://www.w3.org/2000/svg">
<path d="M18 3.50001V3.50001C19.6569 3.50001 21 4.84315 21 6.50001L21 8.64286C21 8.97698 21 9.14405 20.9234 9.26602C20.8834 9.32962 20.8296 9.3834 20.766 9.42336C20.644 9.5 20.477 9.5 20.1429 9.5L15 9.5M18 3.50001V3.50001C16.3431 3.50001 15 4.84315 15 6.50001L15 9.5M18 3.50001L7 3.50001C5.11438 3.50001 4.17157 3.50001 3.58579 4.08579C3 4.67158 3 5.61439 3 7.50001L3 21.5L6 20.5L9 21.5L12 20.5L15 21.5L15 9.5" stroke="#33363F" stroke-width="2"/>
<path d="M7 7.5L11 7.5" stroke="#33363F" stroke-width="2" stroke-linecap="round"/>
<path d="M8 11.5H7" stroke="#33363F" stroke-width="2" stroke-linecap="round"/>
<path d="M7 15.5L10 15.5" stroke="#33363F" stroke-width="2" stroke-linecap="round"/>
</svg>
