<svg width="33" height="33" viewBox="0 0 33 33" fill="none" xmlns="http://www.w3.org/2000/svg">
<path fill-rule="evenodd" clip-rule="evenodd" d="M3.91217 1.75828L5.10211 0.568343C5.85917 -0.188715 7.08988 -0.188715 7.84694 0.568343L12.8668 5.58823C13.6239 6.34528 13.6239 7.57599 12.8668 8.33305L9.38629 11.8136C8.80782 12.392 8.66417 13.2792 9.03105 14.0129C11.1508 18.2563 14.5906 21.6961 18.834 23.8178C19.5678 24.1847 20.4549 24.0391 21.0353 23.4606L24.5139 19.9801C25.2709 19.223 26.5016 19.223 27.2587 19.9801L32.2786 25C33.0356 25.757 33.0356 26.9878 32.2786 27.7448L31.0886 28.9348C26.9889 33.0345 20.5015 33.4946 15.864 30.0179L13.5191 28.2573C10.1336 25.7202 7.12676 22.7133 4.58964 19.3279L2.829 16.9829C-0.647651 12.3455 -0.187592 5.85805 3.91217 1.75828Z" fill="#222222"/>
</svg>
