<svg width="24" height="25" viewBox="0 0 24 25" fill="none" xmlns="http://www.w3.org/2000/svg">
<path d="M4 10.1569C4 9.33935 4 8.9306 4.15224 8.56306C4.30448 8.19552 4.59351 7.90649 5.17157 7.32843L5.82843 6.67157C6.40649 6.09351 6.69552 5.80448 7.06306 5.65224C7.4306 5.5 7.83935 5.5 8.65685 5.5H15.3431C16.1606 5.5 16.5694 5.5 16.9369 5.65224C17.3045 5.80448 17.5935 6.09351 18.1716 6.67157L18.8284 7.32843C19.4065 7.90649 19.6955 8.19552 19.8478 8.56306C20 8.9306 20 9.33935 20 10.1569V16.5C20 18.3856 20 19.3284 19.4142 19.9142C18.8284 20.5 17.8856 20.5 16 20.5H8C6.11438 20.5 5.17157 20.5 4.58579 19.9142C4 19.3284 4 18.3856 4 16.5V10.1569Z" stroke="#33363F" stroke-width="2"/>
<path d="M4 10.5H20" stroke="#33363F" stroke-width="2" stroke-linecap="round"/>
<path d="M14.8327 9.5L9.16602 9.5C8.93031 9.5 8.81246 9.5 8.73924 9.57322C8.66602 9.64645 8.66602 9.7643 8.66602 10L8.66602 14.1667C8.66602 14.9315 8.66602 15.3139 8.76492 15.5194C8.98572 15.9782 9.51601 16.1979 9.99656 16.0296C10.2118 15.9542 10.4822 15.6838 11.023 15.143C11.2735 14.8925 11.3988 14.7673 11.5319 14.6969C11.8244 14.5422 12.1743 14.5422 12.4668 14.6969C12.5999 14.7673 12.7252 14.8925 12.9757 15.143C13.5165 15.6838 13.7869 15.9542 14.0021 16.0296C14.4827 16.1979 15.013 15.9782 15.2338 15.5194C15.3327 15.3139 15.3327 14.9315 15.3327 14.1667V10C15.3327 9.7643 15.3327 9.64645 15.2595 9.57322C15.1862 9.5 15.0684 9.5 14.8327 9.5Z" fill="#33363F"/>
</svg>
