<svg width="14" height="14" viewBox="0 0 14 14" fill="none" xmlns="http://www.w3.org/2000/svg">
<path fill-rule="evenodd" clip-rule="evenodd" d="M10.6654 6.99998C10.6654 9.02502 9.02374 10.6666 6.9987 10.6666C4.97365 10.6666 3.33203 9.02502 3.33203 6.99998C3.33203 4.97493 4.97365 3.33331 6.9987 3.33331C9.02374 3.33331 10.6654 4.97493 10.6654 6.99998Z" stroke="#231815" stroke-width="2"/>
<g clip-path="url(#clip0_31_575)">
<line x1="12.666" y1="7.66675" x2="12.666" y2="7.66675" stroke="#F25022" stroke-width="2" stroke-linecap="round" stroke-linejoin="round"/>
</g>
<g clip-path="url(#clip1_31_575)">
<line x1="1.33398" y1="7.66675" x2="1.33399" y2="7.66675" stroke="#F25022" stroke-width="2" stroke-linecap="round" stroke-linejoin="round"/>
</g>
<g clip-path="url(#clip2_31_575)">
<line x1="12.666" y1="7.66675" x2="12.666" y2="7.66675" stroke="#231815" stroke-width="2" stroke-linecap="round" stroke-linejoin="round"/>
</g>
<g clip-path="url(#clip3_31_575)">
<line x1="1.33398" y1="7.66675" x2="1.33399" y2="7.66675" stroke="#231815" stroke-width="2" stroke-linecap="round" stroke-linejoin="round"/>
</g>
<g clip-path="url(#clip4_31_575)">
<line x1="11.5754" y1="10.4106" x2="11.5754" y2="10.4106" stroke="#231815" stroke-width="2" stroke-linecap="round" stroke-linejoin="round"/>
</g>
<g clip-path="url(#clip5_31_575)">
<line x1="1.76093" y1="4.74402" x2="1.76093" y2="4.74402" stroke="#231815" stroke-width="2" stroke-linecap="round" stroke-linejoin="round"/>
</g>
<g clip-path="url(#clip6_31_575)">
<line x1="9.25702" y1="12.2408" x2="9.25702" y2="12.2408" stroke="#231815" stroke-width="2" stroke-linecap="round" stroke-linejoin="round"/>
</g>
<g clip-path="url(#clip7_31_575)">
<line x1="3.59101" y1="2.42584" x2="3.59101" y2="2.42585" stroke="#231815" stroke-width="2" stroke-linecap="round" stroke-linejoin="round"/>
</g>
<g clip-path="url(#clip8_31_575)">
<line x1="6.33398" y1="12.6667" x2="6.33398" y2="12.6667" stroke="#231815" stroke-width="2" stroke-linecap="round" stroke-linejoin="round"/>
</g>
<g clip-path="url(#clip9_31_575)">
<line x1="6.33398" y1="1.33331" x2="6.33398" y2="1.33331" stroke="#231815" stroke-width="2" stroke-linecap="round" stroke-linejoin="round"/>
</g>
<g clip-path="url(#clip10_31_575)">
<line x1="3.58905" y1="11.5741" x2="3.58905" y2="11.5741" stroke="#231815" stroke-width="2" stroke-linecap="round" stroke-linejoin="round"/>
</g>
<g clip-path="url(#clip11_31_575)">
<line x1="9.25702" y1="1.75922" x2="9.25702" y2="1.75922" stroke="#231815" stroke-width="2" stroke-linecap="round" stroke-linejoin="round"/>
</g>
<g clip-path="url(#clip12_31_575)">
<line x1="1.7586" y1="9.25598" x2="1.7586" y2="9.25598" stroke="#231815" stroke-width="2" stroke-linecap="round" stroke-linejoin="round"/>
</g>
<g clip-path="url(#clip13_31_575)">
<line x1="11.5731" y1="3.5893" x2="11.5731" y2="3.5893" stroke="#231815" stroke-width="2" stroke-linecap="round" stroke-linejoin="round"/>
</g>
<path d="M10.3346 7.00002C10.3346 8.84097 8.84225 10.3333 7.0013 10.3333C5.16035 10.3333 3.66797 8.84097 3.66797 7.00002C3.66797 5.15907 5.16035 3.66669 7.0013 3.66669C8.84225 3.66669 10.3346 5.15907 10.3346 7.00002Z" fill="#FFB900"/>
<defs>
<clipPath id="clip0_31_575">
<rect x="11.332" y="6.33337" width="2.66666" height="1.33333" rx="0.666666" fill="white"/>
</clipPath>
<clipPath id="clip1_31_575">
<rect y="6.33337" width="2.66666" height="1.33333" rx="0.666666" fill="white"/>
</clipPath>
<clipPath id="clip2_31_575">
<rect x="11.332" y="6.33337" width="2.66666" height="1.33333" rx="0.666666" fill="white"/>
</clipPath>
<clipPath id="clip3_31_575">
<rect y="6.33337" width="2.66666" height="1.33333" rx="0.666666" fill="white"/>
</clipPath>
<clipPath id="clip4_31_575">
<rect x="11.0859" y="8.58929" width="2.66666" height="1.33333" rx="0.666666" transform="rotate(30 11.0859 8.58929)" fill="white"/>
</clipPath>
<clipPath id="clip5_31_575">
<rect x="1.27148" y="2.92267" width="2.66666" height="1.33333" rx="0.666666" transform="rotate(30 1.27148 2.92267)" fill="white"/>
</clipPath>
<clipPath id="clip6_31_575">
<rect x="9.74414" y="10.4194" width="2.66666" height="1.33333" rx="0.666666" transform="rotate(60 9.74414 10.4194)" fill="white"/>
</clipPath>
<clipPath id="clip7_31_575">
<rect x="4.07812" y="0.604492" width="2.66666" height="1.33333" rx="0.666666" transform="rotate(60 4.07812 0.604492)" fill="white"/>
</clipPath>
<clipPath id="clip8_31_575">
<rect x="7.66602" y="11.3334" width="2.66666" height="1.33333" rx="0.666666" transform="rotate(90 7.66602 11.3334)" fill="white"/>
</clipPath>
<clipPath id="clip9_31_575">
<rect x="7.66602" width="2.66666" height="1.33333" rx="0.666666" transform="rotate(90 7.66602 0)" fill="white"/>
</clipPath>
<clipPath id="clip10_31_575">
<rect x="5.41016" y="11.0861" width="2.66666" height="1.33333" rx="0.666666" transform="rotate(120 5.41016 11.0861)" fill="white"/>
</clipPath>
<clipPath id="clip11_31_575">
<rect x="11.0781" y="1.27118" width="2.66666" height="1.33333" rx="0.666666" transform="rotate(120 11.0781 1.27118)" fill="white"/>
</clipPath>
<clipPath id="clip12_31_575">
<rect x="3.58008" y="9.74402" width="2.66666" height="1.33333" rx="0.666666" transform="rotate(150 3.58008 9.74402)" fill="white"/>
</clipPath>
<clipPath id="clip13_31_575">
<rect x="13.3945" y="4.07733" width="2.66666" height="1.33333" rx="0.666666" transform="rotate(150 13.3945 4.07733)" fill="white"/>
</clipPath>
</defs>
</svg>
