<svg width="35" height="35" viewBox="0 0 35 35" fill="none" xmlns="http://www.w3.org/2000/svg">
<path d="M17.5 35C27.165 35 35 27.165 35 17.5C35 7.83502 27.165 0 17.5 0C7.83502 0 0 7.83502 0 17.5C0 27.165 7.83502 35 17.5 35Z" fill="black"/>
<path fill-rule="evenodd" clip-rule="evenodd" d="M7.92173 17.3152C13.0233 15.0925 16.4252 13.6272 18.1273 12.9192C22.9873 10.8978 23.9971 10.5466 24.6553 10.535C24.8001 10.5325 25.1238 10.5684 25.3335 10.7385C25.5105 10.8822 25.5592 11.0762 25.5825 11.2124C25.6058 11.3486 25.6349 11.6589 25.6118 11.9013C25.3484 14.6685 24.2089 21.3837 23.6291 24.4829C23.3838 25.7943 22.9008 26.2341 22.4332 26.2771C21.4169 26.3706 20.6452 25.6055 19.6609 24.9603C18.1207 23.9506 17.2505 23.3221 15.7555 22.3369C14.0277 21.1983 15.1477 20.5725 16.1324 19.5498C16.3901 19.2822 20.8678 15.2094 20.9544 14.8399C20.9653 14.7937 20.9753 14.6215 20.873 14.5305C20.7707 14.4396 20.6197 14.4707 20.5107 14.4954C20.3562 14.5305 17.8957 16.1568 13.1291 19.3744C12.4307 19.854 11.7981 20.0876 11.2313 20.0754C10.6064 20.0619 9.40448 19.7221 8.51096 19.4316C7.41502 19.0754 6.54399 18.887 6.61984 18.282C6.65934 17.9669 7.09331 17.6446 7.92173 17.3152Z" fill="white"/>
</svg>
