<svg width="26" height="26" viewBox="0 0 26 26" fill="none" xmlns="http://www.w3.org/2000/svg">
<path d="M5.25 18.4168H9.75C9.98214 18.4168 10.0982 18.4168 10.1962 18.4233C11.6985 18.5217 12.8951 19.7184 12.9936 21.2206C13 21.3186 13 21.4347 13 21.6668V10.3335C13 7.50507 13 6.09086 12.1213 5.21218C11.2426 4.3335 9.82843 4.3335 7 4.3335H5.25C4.30719 4.3335 3.83579 4.3335 3.54289 4.62639C3.25 4.91928 3.25 5.39069 3.25 6.3335V16.4168C3.25 17.3596 3.25 17.831 3.54289 18.1239C3.83579 18.4168 4.30719 18.4168 5.25 18.4168Z" stroke="white" stroke-width="2"/>
<path d="M20.75 18.4168H16.25C16.0179 18.4168 15.9018 18.4168 15.8038 18.4233C14.3015 18.5217 13.1049 19.7184 13.0064 21.2206C13 21.3186 13 21.4347 13 21.6668V10.3335C13 7.50507 13 6.09086 13.8787 5.21218C14.7574 4.3335 16.1716 4.3335 19 4.3335H20.75C21.6928 4.3335 22.1642 4.3335 22.4571 4.62639C22.75 4.91928 22.75 5.39069 22.75 6.3335V16.4168C22.75 17.3596 22.75 17.831 22.4571 18.1239C22.1642 18.4168 21.6928 18.4168 20.75 18.4168Z" stroke="white" stroke-width="2"/>
</svg>
