<svg width="52" height="52" viewBox="0 0 52 52" fill="none" xmlns="http://www.w3.org/2000/svg">
<path fill-rule="evenodd" clip-rule="evenodd" d="M14.0827 34.6667H34.666C38.7515 34.6667 40.7943 34.6667 42.0635 33.3975C43.3327 32.1283 43.3327 30.0855 43.3327 26V15.1667C43.3327 11.0812 43.3327 9.03841 42.0635 7.7692C40.7943 6.5 38.7515 6.5 34.666 6.5H17.3327C13.2472 6.5 11.2044 6.5 9.93522 7.7692C8.66602 9.03841 8.66602 11.0812 8.66602 15.1667V40.0833C8.66602 37.0918 11.0911 34.6667 14.0827 34.6667ZM33.9142 18.7475C34.6953 17.9664 34.6953 16.7001 33.9142 15.919C33.1332 15.138 31.8668 15.138 31.0858 15.919L23.8333 23.1715L20.9142 20.2524C20.1332 19.4713 18.8668 19.4713 18.0858 20.2524C17.3047 21.0334 17.3047 22.2998 18.0858 23.0808L21.712 26.707C22.8836 27.8786 24.7831 27.8786 25.9547 26.707L33.9142 18.7475Z" fill="#EBB9AB"/>
<path d="M42.0635 33.3975L41.3564 32.6904L41.3564 32.6904L42.0635 33.3975ZM33.9142 15.919L33.2071 16.6261L33.2071 16.6261L33.9142 15.919ZM33.9142 18.7475L34.6213 19.4546L34.6213 19.4546L33.9142 18.7475ZM31.0858 15.919L31.7929 16.6261L31.7929 16.6261L31.0858 15.919ZM23.8333 23.1715L23.1262 23.8786L23.8333 24.5857L24.5404 23.8786L23.8333 23.1715ZM18.0858 23.0808L18.7929 22.3737L18.7929 22.3737L18.0858 23.0808ZM21.712 26.707L21.0049 27.4141L21.0049 27.4141L21.712 26.707ZM25.9547 26.707L26.6618 27.4141L26.6618 27.4141L25.9547 26.707ZM34.666 33.6667H14.0827V35.6667H34.666V33.6667ZM41.3564 32.6904C40.9385 33.1082 40.3568 33.3732 39.2876 33.5169C38.1897 33.6645 36.737 33.6667 34.666 33.6667V35.6667C36.6805 35.6667 38.292 35.6688 39.5541 35.4991C40.845 35.3255 41.9192 34.9559 42.7706 34.1046L41.3564 32.6904ZM42.3327 26C42.3327 28.071 42.3306 29.5237 42.183 30.6216C42.0392 31.6907 41.7742 32.2725 41.3564 32.6904L42.7706 34.1046C43.622 33.2532 43.9916 32.179 44.1651 30.8881C44.3348 29.6259 44.3327 28.0145 44.3327 26H42.3327ZM42.3327 15.1667V26H44.3327V15.1667H42.3327ZM41.3564 8.47631C41.7742 8.89414 42.0392 9.47593 42.183 10.5451C42.3306 11.643 42.3327 13.0956 42.3327 15.1667H44.3327C44.3327 13.1522 44.3348 11.5407 44.1651 10.2786C43.9916 8.98766 43.622 7.91347 42.7706 7.0621L41.3564 8.47631ZM34.666 7.5C36.737 7.5 38.1897 7.50212 39.2876 7.64973C40.3568 7.79348 40.9385 8.05848 41.3564 8.47631L42.7706 7.0621C41.9192 6.21073 40.845 5.84113 39.5541 5.66757C38.292 5.49788 36.6805 5.5 34.666 5.5V7.5ZM17.3327 7.5H34.666V5.5H17.3327V7.5ZM10.6423 8.47631C11.0602 8.05848 11.6419 7.79348 12.7111 7.64973C13.809 7.50212 15.2617 7.5 17.3327 7.5V5.5C15.3182 5.5 13.7067 5.49788 12.4446 5.66757C11.1537 5.84113 10.0795 6.21073 9.22811 7.0621L10.6423 8.47631ZM9.66602 15.1667C9.66602 13.0956 9.66814 11.643 9.81575 10.5451C9.95949 9.47593 10.2245 8.89414 10.6423 8.47631L9.22811 7.0621C8.37674 7.91347 8.00714 8.98766 7.83358 10.2786C7.66389 11.5407 7.66602 13.1522 7.66602 15.1667H9.66602ZM9.66602 40.0833V15.1667H7.66602V40.0833H9.66602ZM14.0827 33.6667C10.5389 33.6667 7.66602 36.5395 7.66602 40.0833H9.66602C9.66602 37.6441 11.6434 35.6667 14.0827 35.6667V33.6667ZM33.2071 16.6261C33.5976 17.0167 33.5976 17.6498 33.2071 18.0404L34.6213 19.4546C35.7929 18.283 35.7929 16.3835 34.6213 15.2119L33.2071 16.6261ZM31.7929 16.6261C32.1834 16.2356 32.8166 16.2356 33.2071 16.6261L34.6213 15.2119C33.4497 14.0404 31.5503 14.0404 30.3787 15.2119L31.7929 16.6261ZM24.5404 23.8786L31.7929 16.6261L30.3787 15.2119L23.1262 22.4644L24.5404 23.8786ZM20.2071 20.9595L23.1262 23.8786L24.5404 22.4644L21.6213 19.5453L20.2071 20.9595ZM18.7929 20.9595C19.1834 20.569 19.8166 20.569 20.2071 20.9595L21.6213 19.5453C20.4497 18.3737 18.5503 18.3737 17.3787 19.5453L18.7929 20.9595ZM18.7929 22.3737C18.4024 21.9832 18.4024 21.35 18.7929 20.9595L17.3787 19.5453C16.2071 20.7168 16.2071 22.6163 17.3787 23.7879L18.7929 22.3737ZM22.4191 25.9999L18.7929 22.3737L17.3787 23.7879L21.0049 27.4141L22.4191 25.9999ZM25.2475 25.9999C24.4665 26.781 23.2002 26.781 22.4191 25.9999L21.0049 27.4141C22.567 28.9762 25.0997 28.9762 26.6618 27.4141L25.2475 25.9999ZM33.2071 18.0404L25.2475 25.9999L26.6618 27.4141L34.6213 19.4546L33.2071 18.0404Z" fill="#EBB9AB"/>
<path d="M43.3327 45.5H21.666" stroke="#EBB9AB" stroke-width="2" stroke-linecap="round"/>
</svg>
