<svg width="52" height="52" viewBox="0 0 52 52" fill="none" xmlns="http://www.w3.org/2000/svg">
<path d="M4.33398 14.8332C4.33398 12.9476 4.33398 12.0048 4.91977 11.419C5.50556 10.8333 6.44837 10.8333 8.33398 10.8333H43.6673C45.5529 10.8333 46.4957 10.8333 47.0815 11.419C47.6673 12.0048 47.6673 12.9476 47.6673 14.8333V20.6666C47.6673 21.138 47.6673 21.3737 47.5209 21.5201C47.3744 21.6666 47.1387 21.6666 46.6673 21.6666H5.33398C4.86258 21.6666 4.62688 21.6666 4.48043 21.5201C4.33398 21.3737 4.33398 21.138 4.33398 20.6666V14.8332Z" fill="#F18F47"/>
<path fill-rule="evenodd" clip-rule="evenodd" d="M4.33398 43.6667C4.33398 45.5523 4.33398 46.4951 4.91977 47.0809C5.50556 47.6667 6.44837 47.6667 8.33398 47.6667H43.6673C45.5529 47.6667 46.4957 47.6667 47.0815 47.0809C47.6673 46.4951 47.6673 45.5523 47.6673 43.6667V27C47.6673 26.5286 47.6673 26.2929 47.5209 26.1464C47.3744 26 47.1387 26 46.6673 26H5.33398C4.86258 26 4.62688 26 4.48043 26.1464C4.33398 26.2929 4.33398 26.5286 4.33398 27V43.6667ZM15.168 31.3333C15.168 30.8618 15.168 30.6261 15.3144 30.4797C15.4609 30.3333 15.6966 30.3333 16.168 30.3333H22.8346C23.306 30.3333 23.5417 30.3333 23.6882 30.4797C23.8346 30.6261 23.8346 30.8618 23.8346 31.3333V33.6666C23.8346 34.138 23.8346 34.3737 23.6882 34.5201C23.5417 34.6666 23.306 34.6666 22.8346 34.6666H16.168C15.6966 34.6666 15.4609 34.6666 15.3144 34.5201C15.168 34.3737 15.168 34.138 15.168 33.6666V31.3333ZM15.3144 39.1464C15.168 39.2929 15.168 39.5286 15.168 40V42.3333C15.168 42.8047 15.168 43.0404 15.3144 43.1869C15.4609 43.3333 15.6966 43.3333 16.168 43.3333H22.8346C23.306 43.3333 23.5417 43.3333 23.6882 43.1869C23.8346 43.0404 23.8346 42.8047 23.8346 42.3333V40C23.8346 39.5286 23.8346 39.2929 23.6882 39.1464C23.5417 39 23.306 39 22.8346 39H16.168C15.6966 39 15.4609 39 15.3144 39.1464ZM28.168 31.3333C28.168 30.8618 28.168 30.6261 28.3144 30.4797C28.4609 30.3333 28.6966 30.3333 29.168 30.3333H35.8346C36.306 30.3333 36.5417 30.3333 36.6882 30.4797C36.8346 30.6261 36.8346 30.8618 36.8346 31.3333V33.6666C36.8346 34.138 36.8346 34.3737 36.6882 34.5201C36.5417 34.6666 36.306 34.6666 35.8346 34.6666H29.168C28.6966 34.6666 28.4609 34.6666 28.3144 34.5201C28.168 34.3737 28.168 34.138 28.168 33.6666V31.3333ZM28.3144 39.1464C28.168 39.2929 28.168 39.5286 28.168 40V42.3333C28.168 42.8047 28.168 43.0404 28.3144 43.1869C28.4609 43.3333 28.6966 43.3333 29.168 43.3333H35.8346C36.306 43.3333 36.5417 43.3333 36.6882 43.1869C36.8346 43.0404 36.8346 42.8047 36.8346 42.3333V40C36.8346 39.5286 36.8346 39.2929 36.6882 39.1464C36.5417 39 36.306 39 35.8346 39H29.168C28.6966 39 28.4609 39 28.3144 39.1464Z" fill="#F18F47"/>
<path d="M15.166 6.5L15.166 13" stroke="#F18F47" stroke-width="2" stroke-linecap="round"/>
<path d="M36.834 6.5L36.834 13" stroke="#F18F47" stroke-width="2" stroke-linecap="round"/>
</svg>
