<svg width="52" height="52" viewBox="0 0 52 52" fill="none" xmlns="http://www.w3.org/2000/svg">
<path fill-rule="evenodd" clip-rule="evenodd" d="M6.49656 8.48733C6 9.46222 6 10.7378 6 13.2889V14.6874L46.9772 10.961C46.9339 9.84944 46.8201 9.10689 46.5034 8.48733C46.0661 7.63089 45.3691 6.93389 44.5127 6.49656C43.5378 6 42.2622 6 39.7111 6H13.2889C10.7378 6 9.46222 6 8.48733 6.49656C7.63089 6.93389 6.93389 7.63089 6.49656 8.48733ZM47 15.5348L35.9186 16.5416L41.6267 46.9886C42.9752 46.959 43.8202 46.8565 44.5127 46.5034C45.3691 46.0661 46.0661 45.3691 46.5034 44.5127C47 43.5378 47 42.2622 47 39.7111V15.5348ZM36.996 47L31.3608 16.9561L6 19.2612V39.7111C6 42.2622 6 43.5378 6.49656 44.5127C6.93389 45.3691 7.63089 46.0661 8.48733 46.5034C9.46222 47 10.7378 47 13.2889 47H36.996ZM27.6389 33.3994C27.6389 38.3171 22.7644 41.7702 20.6393 43.0435C20.0357 43.4034 19.2977 43.4034 18.6941 43.0435C16.5689 41.7702 11.6944 38.3171 11.6944 33.3994C11.6944 28.5773 15.5576 25.3611 19.6667 25.3611C23.9193 25.3611 27.6389 28.5773 27.6389 33.3994Z" fill="#3F6935"/>
<path d="M19.6664 35.611C20.9244 35.611 21.9442 34.5912 21.9442 33.3332C21.9442 32.0752 20.9244 31.0554 19.6664 31.0554C18.4085 31.0554 17.3887 32.0752 17.3887 33.3332C17.3887 34.5912 18.4085 35.611 19.6664 35.611Z" fill="#3F6935"/>
</svg>
