<svg width="52" height="52" viewBox="0 0 52 52" fill="none" xmlns="http://www.w3.org/2000/svg">
<path fill-rule="evenodd" clip-rule="evenodd" d="M28.9993 45.0834L40.1327 36.7334C42.1471 35.2226 43.3327 32.8515 43.3327 30.3334V10.6667C43.3327 9.56218 42.4373 8.66675 41.3327 8.66675H10.666C9.56145 8.66675 8.66602 9.56218 8.66602 10.6667V30.3334C8.66602 32.8515 9.85157 35.2226 11.866 36.7334L22.9994 45.0834C24.7771 46.4168 27.2216 46.4167 28.9993 45.0834ZM21.6654 21.6667C21.6654 22.8633 20.6953 23.8333 19.4987 23.8333C18.3021 23.8333 17.332 22.8633 17.332 21.6667C17.332 20.47 18.3021 19.5 19.4987 19.5C20.6953 19.5 21.6654 20.47 21.6654 21.6667ZM28.1654 21.6667C28.1654 22.8633 27.1953 23.8333 25.9987 23.8333C24.8021 23.8333 23.832 22.8633 23.832 21.6667C23.832 20.47 24.8021 19.5 25.9987 19.5C27.1953 19.5 28.1654 20.47 28.1654 21.6667ZM32.4987 23.8333C33.6953 23.8333 34.6654 22.8633 34.6654 21.6667C34.6654 20.47 33.6953 19.5 32.4987 19.5C31.3021 19.5 30.332 20.47 30.332 21.6667C30.332 22.8633 31.3021 23.8333 32.4987 23.8333Z" fill="#8A84CE"/>
</svg>
