<svg width="52" height="52" viewBox="0 0 52 52" fill="none" xmlns="http://www.w3.org/2000/svg">
<path d="M25.5835 25.7502L38.344 34.4356C39.4857 35.2127 40.1669 36.5023 40.1669 37.8815V43.4586C40.1669 44.0336 39.7002 44.5003 39.1252 44.5003H12.0417C11.4667 44.5003 11 44.0336 11 43.4586V37.8815C11 36.5023 11.6813 35.2127 12.8229 34.4356L25.5835 25.7502ZM25.5835 25.7502L38.344 17.0647C39.4857 16.2876 40.1669 14.998 40.1669 13.6188V8.04168C40.1669 7.46667 39.7002 7 39.1252 7H12.0417C11.4667 7 11 7.46667 11 8.04168V13.6188C11 14.998 11.6813 16.2876 12.8229 17.0647L25.5835 25.7502Z" stroke="#D4493F" stroke-width="4.1667" stroke-linecap="round" stroke-linejoin="round"/>
<path d="M31.8341 42.8481V44.1877C31.8341 44.3606 31.6945 44.5002 31.5216 44.5002H19.6465C19.4736 44.5002 19.334 44.3606 19.334 44.1877V42.8481C19.334 42.5731 19.4444 42.3065 19.6382 42.1127L24.4049 37.346C25.0569 36.6939 26.1111 36.6939 26.7632 37.346L31.5299 42.1127C31.7237 42.3065 31.8341 42.5731 31.8341 42.8481Z" fill="#D4493F"/>
<path d="M25.5828 23.6668L35.9995 17.4167H15.166L25.5828 23.6668Z" fill="#D4493F"/>
<path d="M25.584 38.2503V25.7502" stroke="#D4493F" stroke-width="4.1667" stroke-linecap="round" stroke-linejoin="round"/>
</svg>
