<svg width="52" height="52" viewBox="0 0 52 52" fill="none" xmlns="http://www.w3.org/2000/svg">
<path fill-rule="evenodd" clip-rule="evenodd" d="M4.33398 25.9999C4.33398 14.0337 14.0345 4.33325 26.0007 4.33325C37.9668 4.33325 47.6673 14.0337 47.6673 25.9999C47.6673 32.9758 44.3706 39.1816 39.2502 43.1445C38.3607 40.5381 36.7192 38.2446 34.5233 36.5596C32.0783 34.6835 29.0825 33.6666 26.0007 33.6666C22.9188 33.6666 19.923 34.6835 17.478 36.5596C15.2821 38.2446 13.6406 40.5381 12.7511 43.1445C7.63067 39.1816 4.33398 32.9758 4.33398 25.9999ZM33.3058 38.1463C35.3426 39.7093 36.8229 41.8829 37.5322 44.3463C34.1928 46.4497 30.2388 47.6666 26.0007 47.6666C21.7625 47.6666 17.8085 46.4497 14.4691 44.3463C15.1784 41.8829 16.6587 39.7093 18.6955 38.1463C20.7912 36.5382 23.359 35.6666 26.0007 35.6666C28.6423 35.6666 31.2101 36.5382 33.3058 38.1463ZM20.5007 19.4999C20.5007 16.4624 22.9631 13.9999 26.0007 13.9999C29.0382 13.9999 31.5007 16.4624 31.5007 19.4999C31.5007 22.5375 29.0382 24.9999 26.0007 24.9999C22.9631 24.9999 20.5007 22.5375 20.5007 19.4999ZM26.0007 11.9999C21.8585 11.9999 18.5007 15.3578 18.5007 19.4999C18.5007 23.6421 21.8585 26.9999 26.0007 26.9999C30.1428 26.9999 33.5007 23.6421 33.5007 19.4999C33.5007 15.3578 30.1428 11.9999 26.0007 11.9999Z" fill="#60BBFF"/>
<rect x="4.83398" y="4.83325" width="42.3333" height="42.3333" rx="21.1667" stroke="#60BBFF"/>
</svg>
