<svg width="52" height="52" viewBox="0 0 52 52" fill="none" xmlns="http://www.w3.org/2000/svg">
<path fill-rule="evenodd" clip-rule="evenodd" d="M5.21266 7.37868C4.33398 8.25736 4.33398 9.67157 4.33398 12.5V39.5C4.33398 42.3284 4.33398 43.7426 5.21266 44.6213C6.09134 45.5 7.50556 45.5 10.334 45.5H41.6673C44.4957 45.5 45.91 45.5 46.7886 44.6213C47.6673 43.7426 47.6673 42.3284 47.6673 39.5V36.8333H34.6673C32.3327 36.8333 31.1654 36.8333 30.2817 36.361C29.584 35.9881 29.0126 35.4166 28.6396 34.7189C28.1673 33.8353 28.1673 32.668 28.1673 30.3333C28.1673 27.9987 28.1673 26.8314 28.6396 25.9477C29.0126 25.25 29.584 24.6786 30.2817 24.3056C31.1654 23.8333 32.3327 23.8333 34.6673 23.8333H47.6673V12.5C47.6673 9.67157 47.6673 8.25736 46.7886 7.37868C45.91 6.5 44.4957 6.5 41.6673 6.5H10.334C7.50556 6.5 6.09134 6.5 5.21266 7.37868ZM15.168 15.8333C14.3395 15.8333 13.668 16.5048 13.668 17.3333C13.668 18.1617 14.3395 18.8333 15.168 18.8333H21.668C22.4964 18.8333 23.168 18.1617 23.168 17.3333C23.168 16.5048 22.4964 15.8333 21.668 15.8333H15.168Z" fill="#9BC4F0"/>
<path d="M36.8327 30.3333H34.666" stroke="#9BC4F0" stroke-width="3" stroke-linecap="round"/>
</svg>
