<svg width="108" height="100" viewBox="0 0 108 100" fill="none" xmlns="http://www.w3.org/2000/svg">
<path d="M93.9655 56.3636C93.9655 80.4635 74.411 100 50.2895 100C26.1678 100 6.61328 80.4635 6.61328 56.3636C6.61328 32.2641 26.1678 12.7275 50.2895 12.7275C74.411 12.7275 93.9655 32.2641 93.9655 56.3636Z" fill="#ED2127"/>
<path d="M32.5996 41.5211L41.0774 33.0507H50.0279L58.0597 35.909L66.9838 31.6609L58.5323 39.8427H49.7919L41.4714 37.1155L32.5996 41.5211Z" fill="white"/>
<path d="M56.1177 46.0839L52.3381 49.493L49.1359 55.4721V57.7788H43.834L40.7891 60.979V68.112L44.4113 64.7028H49.1885V79.0735L53.2831 75.2447L56.1177 69.8427V46.0839Z" fill="white"/>
<path d="M74.649 36.591L66.3022 44.3008L63.3099 52.7447V83.0594L60.6853 88.1993L52.8635 90.9267H44.0444L36.4325 88.4091L30.5004 82.9022V77.9721L32.9153 75.612H35.3297L37.4822 77.6574L35.5399 79.9127H32.9677V81.1189H36.0126L39.4248 77.8672L36.0126 74.2483H32.6003L29.3457 77.395V83.5316L35.1199 89.3009L43.6244 92.0806H52.8635L61.5776 89.3009L67.4571 83.5839L70.2394 78.077V44.8253L74.649 36.591Z" fill="white"/>
<path d="M28.1904 8.2168L22.3633 22.6926C22.3633 22.6926 53.1782 26.4162 55.3828 30.4545C55.3828 30.4545 56.1178 27.2031 88.1924 33.444L83.8878 15.8743L28.1904 8.2168Z" fill="#231F20"/>
<path d="M88.192 48.633L82.6719 47.6678L86.9263 25.4099L90.8638 26.0932L88.192 48.633Z" fill="#DF9B26"/>
<path d="M88.8837 25.9922C87.5945 25.7668 86.7241 24.5285 86.9497 23.2404C87.1753 21.9523 88.415 21.0827 89.7042 21.3081C90.9935 21.5335 91.8637 22.7718 91.638 24.0599C91.4124 25.348 90.173 26.2176 88.8837 25.9922Z" fill="#DF9B26"/>
<path d="M90.0904 27.9546L86.9636 27.4079C86.2905 27.2901 85.8363 26.6438 85.9542 25.9713L86.3462 23.7325C86.4641 23.0601 87.111 22.606 87.7841 22.7238L90.9109 23.2705C91.5839 23.3883 92.0385 24.0346 91.9206 24.7071L91.5286 26.9459C91.4107 27.6183 90.7637 28.0721 90.0904 27.9546Z" fill="#E7E9E9"/>
<path d="M0 0L56.1173 17.6226L108 16.0841L56.1173 2.02818L0 0Z" fill="#231F20"/>
<path fill-rule="evenodd" clip-rule="evenodd" d="M55.208 7.67746C55.0618 7.63884 54.9744 7.48874 55.0131 7.34249C55.0517 7.1965 55.2019 7.10913 55.3483 7.14775L90.3869 16.4108L89.795 21.6392C89.778 21.7895 89.6421 21.8977 89.4918 21.8807C89.3413 21.8637 89.233 21.7279 89.25 21.5778L89.7887 16.8195L55.208 7.67746Z" fill="#E3E219"/>
</svg>
